<svg xmlns="http://www.w3.org/2000/svg" width="580" height="510.68">
  <path fill="#fff" d="M125.72 34.38C192.22 84.3 263.74 185.52 290 239.84 316.27 185.52 387.8 84.3 454.28 34.38 502.26-1.65 580-29.52 580 59.17c0 17.71-10.15 148.79-16.1 170.07-20.71 73.98-96.15 92.85-163.26 81.43 117.3 19.97 147.14 86.1 82.7 152.22-122.4 125.6-175.91-31.5-189.63-71.76-2.51-7.38-3.7-10.83-3.7-7.9-.03-2.94-1.2.52-3.72 7.9-13.71 40.25-67.23 197.36-189.63 71.76-64.44-66.12-34.6-132.26 82.7-152.22-67.1 11.42-142.55-7.45-163.25-81.43C10.15 207.96 0 76.88 0 59.17c0-88.69 77.74-60.82 125.72-24.8z"/>
</svg>