<svg xmlns="http://www.w3.org/2000/svg" id="svg8" width="456.18" height="161.09" version="1.1">
  <defs id="defs1">
    <style id="style1">
      .cls-1{fill:#fff}
    </style>
  </defs>
  <path id="path1" d="M239.52 4.96c.09-1.6.74-3.71-.91-4.62-2-1.1-3.33.7-4.77 2-13.42 12-21.35 27-24.89 44.59a105.6 105.6 0 0 0 1.82 62.76 72.37 72.37 0 0 0 4.91-6.48c10.13-25.35 19-64.38 22.75-81.7.38-5.51.77-11 1.09-16.53" class="cls-1"/>
  <path id="path2" d="M259 14.14c-2.07-1.59-5.27.08-7.66 1.57-2.74 1.71-5.46 3.43-8.19 5.15-2.76 13.1-9.15 41.5-16.88 65.88 1.66-2.69 3-4.81 3.59-5.79 11.86-18.57 21.89-38.07 29-59.06.89-2.66 2.52-6 .2-7.75" class="cls-1"/>
  <path id="path3" d="M436.31 118.84a137.76 137.76 0 0 1-27.14 21.9c-6.59 4.09-13.18 4.37-19.8.2a144.93 144.93 0 0 1-27.18-21.84c-4.67-4.83-5.34-9.92-.47-15.11a122 122 0 0 1 28.42-22.8c5.86-3.37 11.86-3.66 17.68-.23a126.08 126.08 0 0 1 29.55 24 7.15 7.15 0 0 1 2.24 5.94c.49 3.28-1.13 5.66-3.3 7.92m12.45-25.41c-10.56-12.45-23.67-21.35-38.5-27.84a25.58 25.58 0 0 0-21.05-.32c-15.54 6.38-29 15.62-40 28.44-9 10.58-9.65 21.51-1.3 32.94 11.59 15.87 27.7 25.62 45.83 32.17 1.72.62 3.73.44 5.26.59 2-.16 3.71.06 5.19-.47 18.45-6.55 34.77-16.51 46.53-32.59 8.1-11.06 7-22.32-2-32.9" class="cls-1"/>
  <path id="path4" d="M146.94 120.34c-8.94 11.36-21 17.65-34.47 21.81-3.91 1.21-4.78-.69-4.76-4.07v-27.12c0-8.22.17-16.44-.06-24.65-.14-5.06 1.23-7.19 6.57-5.47 12.64 4.07 23.71 10.42 32.29 20.94 5.08 6.22 5.31 12.33.42 18.56m13-26.85c-15.76-19.16-37.24-28.07-61.26-31.21-5.32-.7-7.15 2.23-7.09 7.33.14 13.68.05 27.35 0 41 0 14.22.06 28.44 0 42.66 0 4.34.59 7.93 6 7.26 23.77-2.88 45-11.72 61.28-29.81 10.4-11.53 10.93-25.22 1-37.25" class="cls-1"/>
  <path id="path5" d="M24.63 96.96a64.14 64.14 0 0 1 22.84-13.62 222.57 222.57 0 0 1 29.63-8.06c3.76-.81 6.72-2.7 6.46-7.07-.24-4.13-3.8-5-6.9-5.83a17.27 17.27 0 0 0-5.66-.2c-23.53 1.7-44 10.71-60.81 27.37-12.31 12.17-13.8 27.41-2.64 40.33 17.18 19.89 39.87 29.29 65.77 30.51 3.92.18 9.6.24 10.16-5.7.55-5.75-4.21-6.86-8.65-7.66-1.59-.29-3.17-.64-4.73-1-16.18-4.25-32.71-7.7-45.18-20.35-1.26-1.29-3.42-2.42-2.66-4.64.82-2.38 3.22-1.54 5-1.55 10.28 0 20.58.25 30.86 0 5.08-.1 9-2.55 9.1-8.32.07-6.1-4.31-7.65-9.3-7.83-4.99-.18-10.28 0-15.43 0s-10.29.08-15.43 0c-1.73-.05-4.11.9-4.92-1.56-.72-2.19 1.15-3.4 2.53-4.7" class="cls-1"/>
  <path id="path6" d="M267.66 77.96v-4.14c-.1-4.61.73-10.33-5.31-11.3-6.59-1.06-7.36 4.61-8.52 9.55-3 12.7-5.78 25.48-9.48 38-3.48 11.77-7.73 23.33-17.51 31.72-5.62 4.83-10.84 5.14-16.58.18-6.78-5.84-11.3-13.12-14.47-21.4-5.93-15.55-9.5-31.77-12.85-48-1.07-5.19-2.32-10.65-8.31-9.9s-6.62 6.82-6.06 11.79c2.84 25.18 9.29 49.18 23.33 70.64 13.52 20.65 37.32 21.46 51.68 1.47 15-20.93 20.89-45.11 24.09-68.56" class="cls-1"/>
  <path id="path7" d="M337.52 98.24c.57-16.4-7.2-26.87-22.93-31.2-8.9-2.45-18-3.54-27.14-4.32-5.62-.49-12.68-.14-13.57 7.14-1 8 6.68 7 11.58 8.25 2.06.54 4.32.24 6.46.5 7.49.93 15.09 1.47 21.91 5.23 8.83 4.87 10.38 17.28 3.19 24.48-4.07 4.08-9.22 5.51-14.59 6.42-6.91 1.17-13.84 2.19-20.76 3.29-4 .63-7.41 1.88-8 6.64-.59 4.76 0 9 4.51 11.33 12.33 6.37 23.63 14.27 34.78 22.5 3.61 2.67 8.19 4 11.57-.69 3.05-4.17-.52-7.26-2.74-10-5.66-7-13.07-12.06-22.31-17.41 5.48-1 9.2-1.7 12.91-2.42 15.28-3 24.62-14 25.17-29.71" class="cls-1"/>
</svg>