<svg xmlns="http://www.w3.org/2000/svg" width="131.85" height="99.18" viewBox="0 0 43.95 33.06">
  <path fill="#eee" d="M3.72 0h36.5a3.72 3.72 0 0 1 3.73 3.72v25.62a3.72 3.72 0 0 1-3.73 3.72H3.73A3.72 3.72 0 0 1 0 29.34V3.72A3.72 3.72 0 0 1 3.72 0Z"/>
  <path fill="purple" d="M2.78.1C4.44 1.2 20.46 12.48 22 13.49 23.45 12.47 37.45 2.69 41.1.1a3.67 3.67 0 0 1 2.85 3.62v25.62a3.72 3.72 0 0 1-3.73 3.72h-1.21L39 8.29l-16.93 12L4.97 8.26l.09 24.8H3.72A3.72 3.72 0 0 1 0 29.34V3.72C0 1.66 1.4.34 2.78.11z"/>
</svg>
