<svg xmlns="http://www.w3.org/2000/svg" width="48" height="48"><path d="M5.75 7.468h36.5a3.716 3.716 0 0 1 3.724 3.724v25.616a3.716 3.716 0 0 1-3.723 3.724H5.749a3.716 3.716 0 0 1-3.723-3.724V11.192a3.716 3.716 0 0 1 3.723-3.724z" fill="#eee"/><path d="M4.808 7.581c1.658 1.093 17.677 12.36 19.213 13.366 1.447-1.005 15.447-10.785 19.11-13.375 1.699.421 2.843 1.86 2.843 3.62v25.616a3.716 3.716 0 0 1-3.723 3.724l-1.22-.003-.007-24.762-16.927 11.985-17.1-12.018.088 24.806-1.336-.008a3.723 3.723 0 0 1-3.723-3.724V11.192c0-2.063 1.405-3.383 2.782-3.61z" fill="#800080"/></svg>