<svg xmlns="http://www.w3.org/2000/svg" viewBox="0 0 512 512"><mask id="a"><circle cx="256" cy="256" r="256" fill="#fff"/></mask><g mask="url(#a)"><path d="M-15.687-18.989h548.218V530.88H-15.687z" style="fill:#fff;fill-opacity:1"/><path fill="#0052b4" d="m47.4 0 141.8 142V0H47.4zm275.4 0v142l142-142h-142zM0 47.2v142h142L0 47.2zm512 .1L370.1 189.2H512V47.3zM0 322.8v141.9l141.9-141.9H0zm370 0 142 142v-142H370zM189.3 370l-142 142h142V370zm133.5.1V512h141.9L322.8 370.1z"/><path fill="#d80027" d="M222.6 0v222.6H0v66.8h222.6V512h66.8V289.4H512v-66.8H289.4V0h-66.8z"/><path fill="#d80027" d="M0 0v31.4l157.7 157.8h31.5L0 0zm480.6 0L322.8 157.7v31.5L512 0h-31.4zM189.2 322.8 0 512h31.4l157.8-157.7v-31.5zm133.6 0L511.9 512h.1v-31.3L354.3 322.8h-31.5z"/></g></svg>