<svg xmlns="http://www.w3.org/2000/svg" width="77.16" height="75.88">
  <path fill="#fff" fill-rule="evenodd" d="M38.61 0C17.26 0 0 17.39 0 38.9a38.87 38.87 0 0 0 26.4 36.9c1.92.39 2.62-.84 2.62-1.87 0-.9-.06-3.99-.06-7.2-10.74 2.31-12.98-4.65-12.98-4.65-1.72-4.5-4.28-5.66-4.28-5.66-3.52-2.39.26-2.39.26-2.39 3.9.26 5.94 4 5.94 4 3.45 5.92 9.01 4.25 11.25 3.22.32-2.51 1.34-4.25 2.43-5.22-8.57-.9-17.58-4.25-17.58-19.2 0-4.24 1.53-7.72 3.96-10.42-.38-.97-1.72-4.96.39-10.3 0 0 3.26-1.04 10.6 3.98a37.12 37.12 0 0 1 9.66-1.29c3.26 0 6.59.46 9.66 1.3 7.35-5.03 10.6-4 10.6-4 2.12 5.35.78 9.34.4 10.3 2.49 2.71 3.96 6.19 3.96 10.44 0 14.94-9.02 18.22-17.65 19.2 1.4 1.21 2.62 3.53 2.62 7.2 0 5.22-.06 9.4-.06 10.7 0 1.02.7 2.25 2.62 1.86a38.87 38.87 0 0 0 26.4-36.9C77.22 17.39 59.9 0 38.61 0Z" clip-rule="evenodd" style="stroke-width:.790368"/>
</svg>