<svg xmlns="http://www.w3.org/2000/svg" width="98" height="96"><path fill="#fff" fill-rule="evenodd" d="M49.032 10.062c-21.352 0-38.613 17.388-38.613 38.9 0 17.195 11.06 31.75 26.403 36.902 1.918.387 2.62-.837 2.62-1.867 0-.902-.063-3.993-.063-7.214-10.74 2.32-12.978-4.637-12.978-4.637-1.726-4.508-4.283-5.667-4.283-5.667-3.516-2.383.256-2.383.256-2.383 3.9.258 5.946 3.993 5.946 3.993 3.451 5.925 9.013 4.251 11.25 3.22.32-2.511 1.343-4.25 2.43-5.216-8.567-.902-17.58-4.25-17.58-19.193 0-4.25 1.533-7.728 3.963-10.432-.384-.966-1.726-4.96.384-10.305 0 0 3.26-1.03 10.611 3.993a37.124 37.124 0 0 1 9.654-1.289c3.26 0 6.584.452 9.653 1.289 7.352-5.024 10.612-3.993 10.612-3.993 2.11 5.345.767 9.339.383 10.305 2.494 2.704 3.964 6.182 3.964 10.432 0 14.942-9.013 18.226-17.644 19.193 1.407 1.223 2.62 3.542 2.62 7.213 0 5.216-.063 9.403-.063 10.69 0 1.031.704 2.255 2.621 1.869 15.343-5.153 26.403-19.708 26.403-36.903.063-21.512-17.261-38.9-38.55-38.9Z" clip-rule="evenodd" style="stroke-width:.790368"/></svg>