<svg viewBox="0 0 123 73.3" xml:space="preserve" xmlns="http://www.w3.org/2000/svg"><style>.st0{fill-rule:evenodd;clip-rule:evenodd}</style><path d="M118 24.5v24.4h.77c.53 0 .96.43.96.96v6.57c0 .52-.43.96-.96.96H118v2.3c.98.18 1.73 1.05 1.73 2.08 0 1.16-.96 2.12-2.12 2.12h-3.79c-1.16 0-2.12-.95-2.12-2.12 0-1.03.75-1.9 1.73-2.08v-2.3h-.77c-.52 0-.96-.43-.96-.96v-6.57c0-.53.43-.96.96-.96h.77v-23" fill="#fff"/><path d="M113 25.9 73 38.3c-7.24 1.72-14.5 1.84-21.7 0L3.2 23.9c-4.97-2.03-3.73-6.8.9-7.9L54 1.1c5.15-1.47 10.3-1.7 15.4 0l49 14.7c5.33 1.3 6.38 6.23.18 8.26l-1.05.33" fill="#800080"/><path d="m104 58.9-.54-20-32.8 9.49c-2.96.65-5.88.96-8.74.97-3.07.01-6.09-.32-9.06-.97l-31.4-9.59v20.3c.9 10.5 31.1 13.8 40.4 14.2 7.43.36 36.8-3.52 40.6-9.57.83-1.32 1.35-2.92 1.55-4.8z" fill="#fff"/></svg>