<svg enable-background="new 0 0 122.88 73.27" version="1.1" viewBox="0 0 123 73.3" xml:space="preserve" xmlns="http://www.w3.org/2000/svg"><style type="text/css"><![CDATA[
	.st0{fill-rule:evenodd;clip-rule:evenodd;}
]]></style><path d="m118 24.5v24.4h0.77c0.53 0 0.96 0.43 0.96 0.96v6.57c0 0.52-0.43 0.96-0.96 0.96h-0.77v2.3c0.98 0.18 1.73 1.05 1.73 2.08 0 1.16-0.96 2.12-2.12 2.12h-3.79c-1.16 0-2.12-0.95-2.12-2.12 0-1.03 0.75-1.9 1.73-2.08v-2.3h-0.77c-0.52 0-0.96-0.43-0.96-0.96v-6.57c0-0.53 0.43-0.96 0.96-0.96h0.77v-23" fill="#fff"/><path d="m113 25.9-40 12.4c-7.24 1.72-14.5 1.84-21.7 0l-48.1-14.4c-4.97-2.03-3.73-6.8 0.9-7.9l49.9-14.9c5.15-1.47 10.3-1.7 15.4 0l49 14.7c5.33 1.3 6.38 6.23 0.18 8.26l-1.05 0.33" fill="#800080"/><path d="m104 58.9-0.54-20-32.8 9.49c-2.96 0.65-5.88 0.96-8.74 0.97-3.07 0.01-6.09-0.32-9.06-0.97l-31.4-9.59v20.3c0.9 10.5 31.1 13.8 40.4 14.2 7.43 0.36 36.8-3.52 40.6-9.57 0.83-1.32 1.35-2.92 1.55-4.8z" fill="#fff"/></svg>
