<svg viewBox="0 0 123 110" xml:space="preserve" xmlns="http://www.w3.org/2000/svg"><path d="M112 104v3.93c0 1.02-.82 1.84-1.84 1.84h-98.5c-1.02 0-1.84-.82-1.84-1.84v-56.4c-2.05.79-3.97.8-5.57.27a6.565 6.565 0 0 1-3.07-2.15 6.704 6.704 0 0 1-1.41-3.46c-.23-2.02.38-4.32 2.11-6.47.09-.11.19-.21.3-.29L59.78.33c.65-.6 1.65-.66 2.37-.1l57.7 39c.08.06.15.13.22.2 2.32 2.5 2.9 5.27 2.34 7.62-.28 1.15-.83 2.19-1.6 3.05s-1.73 1.52-2.84 1.92c-1.76.63-3.84.61-5.96-.39zm-16.9 1.15h12.3v-55.7c0-.12.01-.24.04-.35l-46.1-30.7-47 30.7c.04.15.06.31.06.47v55.5h80.7z" fill="#800080" style="fill-rule:evenodd;clip-rule:evenodd"/><path d="M37.9 89.3h2.98c1.95-3.02 6.13-4.6 9.87-6.01.92-.35 1.82-.69 2.64-1.03.43-.57.79-1.19 1.06-1.84.24-.57.42-1.16.54-1.79-.67-.4-1.31-.87-1.92-1.4-2.48-2.2-4.21-4-5.33-6.07-1.13-2.11-1.61-3.23-1.55-6.48l.18-6.23c0-.1.02-.2.05-.29l-2.19-.76c-.32-7.14 3.7-11.4 8.68-13.6 1.81-.78-1.22-4.74 2.95-3.35 5.57 1.87 17.9 4.3 20.9 7.67 2.38 2.74 2.48 4.24 2.42 7.85-.02 1.17-.2 2.2-.76 2.57-.26.17-.56.24-.92.2v6.6c0 4.46-1.6 6.97-4.05 9.73-1.38 1.55-3.03 2.8-4.82 3.7.11.57.26 1.12.45 1.65.22.61.5 1.2.84 1.75.72.32 1.43.61 2.14.9 3.49 1.43 7.04 2.88 8.88 6.23h4.03c1.42 0 2.58 1.16 2.58 2.58v13.3h-52.2v-13.3c0-1.42 1.16-2.58 2.58-2.58zm23.3 9.64c1.71 0 3.1 1.39 3.1 3.1s-1.39 3.1-3.1 3.1-3.1-1.39-3.1-3.1 1.39-3.1 3.1-3.1zm-2.92-18.9c-.56-.15-1.11-.33-1.64-.55-.13.57-.31 1.13-.54 1.66-.28.67-.63 1.31-1.06 1.91.47.52 1 .97 1.58 1.34 1.56 1.01 3.44 1.48 5.28 1.43 1.84-.04 3.63-.6 5.03-1.67.49-.37.93-.79 1.3-1.28-.33-.57-.61-1.17-.84-1.8a12.9 12.9 0 0 1-.44-1.5c-1.79.64-3.61.96-5.39.94-1.11-.04-2.21-.19-3.28-.48zm-1.82-2.61a12 12 0 0 0 1.78.75c1.13.36 2.32.53 3.51.53 1.89 0 3.8-.43 5.58-1.24s3.43-2 4.78-3.52c2.18-2.46 3.59-4.56 3.59-8.56v-4.97a6.25 6.25 0 0 0-.25-1.62c-.15-.47-.36-.89-.64-1.25-1.08-1.35-2.11-1.34-3.57-1.33h-.45c-5.78-.02-9.58-.21-12.6-.63-2.84-.38-5.06-.96-7.65-1.77a12.298 12.298 0 0 1-2.34 3.47l-.17 7.43c-.06 2.93.36 3.79 1.34 5.62 1 1.86 2.62 3.53 4.95 5.59.62.54 1.28 1.01 1.96 1.38.08.04.16.08.23.12zm12.5-15.2c1.05 0 1.91.85 1.91 1.9s-.86 1.9-1.91 1.9a1.9 1.9 0 1 1 0-3.8zm-14.4 0c1.05 0 1.91.85 1.91 1.9s-.85 1.9-1.91 1.9a1.9 1.9 0 1 1 0-3.8zm3.29 9.83c-.41-.27-.52-.81-.26-1.22s.81-.53 1.22-.26c1 .65 1.97 1.01 2.88 1.02.89.01 1.77-.3 2.63-.98.38-.3.94-.23 1.24.15s.23.94-.16 1.24c-1.2.93-2.44 1.36-3.74 1.34-1.26-.01-2.53-.46-3.81-1.29zm-14.7 17.3h35.6c-1.69-2.24-4.59-3.43-7.45-4.6-.6-.25-1.19-.49-1.76-.73-.47.64-1.05 1.21-1.71 1.69-1.58 1.14-3.61 1.8-5.72 1.9-2.09.1-4.26-.35-6.11-1.41a9.487 9.487 0 0 1-2.48-2.05c-.7.28-1.43.56-2.18.84-3.02 1.14-6.35 2.39-8.24 4.36z" clip-rule="evenodd" fill="#fff" fill-rule="evenodd"/></svg>