<svg xmlns="http://www.w3.org/2000/svg" xml:space="preserve" viewBox="0 0 123 110">
  <path fill="purple" d="M112 104c-.03 2.25.72 6.35-2.83 5.77H11.66c-1.89.23-1.84-4.4-1.84-6.79V51.53c-7.31 3.7-13.84-7.42-7.37-12.29 19.3-13.08 39.5-26.1 58.82-39.16 20.06 12.53 23.82 15.47 58.8 39.35 7.35 5.35-.57 17.17-8.06 12.39zm-16.9 1.15h12.3c.03-18.68-.05-37.37.04-56.05l-46.1-30.7-47 30.7c.14 18.65.02 37.32.06 55.97h80.7z" style="clip-rule:evenodd;fill-rule:evenodd"/>
  <path fill="#fff" fill-rule="evenodd" d="M37.9 89.3c1.02-.16 2.39.34 3.17-.28 3-3.86 8.05-4.92 12.32-6.76 1.37-1.72 2.37-4.13-.32-5.03-3.8-3.17-7.47-7.6-6.87-12.88.09-2.06.06-4.14.22-6.19-2.23-.2-2.72-1.8-2.04-3.9.6-4.91 4.4-8.77 8.82-10.64.53-1.5-.1-4.62 2.66-3.17 6.6 2.22 13.75 3.17 19.82 6.75 2.83 1.94 3.87 5.49 3.5 8.77.54 2.45-2.38 2.34-1.68 4.6-.04 4.25.5 8.9-2.38 12.44a17.8 17.8 0 0 1-6.49 5.76c.03 3.36 3.1 4.27 5.71 5.26 2.6 1.14 5.21 2.7 6.6 5.27 1.82.14 3.78-.37 5.47.44 1.77 1.35.95 3.74 1.14 5.64v9.8h-52.2c.03-4.6-.07-9.22.05-13.82a2.61 2.61 0 0 1 2.5-2.06Zm20.38-9.26c-2.1-1.7-2.77 2.35-2.88 3.4 3.44 3.31 9.78 3.26 12.83-.56-.85-2.38-1.3-3.97-3.98-2.58a13.52 13.52 0 0 1-5.97-.26Zm-1.82-2.61c5.79 3.06 13.2.32 16.79-4.84 2.59-2.85 2.52-6.78 2.45-10.37.11-2.19-.04-5.05-2.53-5.85-5.15-.38-10.38-.01-15.5-.85-2.43.04-5.5-1.87-7.36-1.22-.82 1.72-2.61 2.9-2.16 5 .07 3.07-.53 6.23.35 9.23 1.53 3.77 4.62 6.77 8.01 8.9ZM43.15 89.36h35.6c-2.28-2.89-5.98-3.9-9.21-5.33-3.8 4.85-12.07 4.75-16.02.13-3.51 1.48-7.72 2.5-10.37 5.2z" clip-rule="evenodd"/>
</svg>
