<svg xmlns="http://www.w3.org/2000/svg" xml:space="preserve" viewBox="0 0 123 110"><path fill="purple" d="M112 104c-.027 2.248.717 6.35-2.83 5.77H11.66c-3.02-.71-1.45-4.521-1.84-6.786V51.53c-7.312 3.704-13.842-7.42-7.367-12.285C21.746 26.162 41.013 13.04 60.323-.017c2.607-.15 4.494 2.438 6.745 3.57 17.658 11.97 35.387 23.851 53.002 35.877 4.788 4.008 2.302 12.973-4.2 13.007-3.617-1.226-4.367-.419-3.86 3.15L112 104Zm-16.9 1.15h12.3c.027-18.683-.053-37.371.04-56.05l-46.1-30.7-47 30.7c.14 18.649.02 37.315.06 55.97h80.7z" style="clip-rule:evenodd;fill-rule:evenodd"/><path fill="#fff" fill-rule="evenodd" d="M37.9 89.3c1.02-.16 2.39.337 3.17-.279 2.994-3.857 8.047-4.921 12.32-6.761 1.367-1.718 2.373-4.126-.32-5.03-3.792-3.168-7.468-7.605-6.87-12.883.087-2.061.063-4.133.22-6.187-2.226-.207-2.723-1.804-2.035-3.9.594-4.914 4.403-8.775 8.81-10.641.533-1.494-.095-4.623 2.665-3.169 6.607 2.216 13.75 3.17 19.824 6.747 2.823 1.938 3.863 5.492 3.496 8.773.543 2.446-2.378 2.342-1.68 4.604-.042 4.242.509 8.893-2.384 12.438-1.696 2.37-3.85 4.466-6.486 5.758.033 3.36 3.098 4.268 5.71 5.261 2.595 1.135 5.215 2.697 6.6 5.269 1.82.144 3.782-.368 5.47.442 1.773 1.344.949 3.738 1.14 5.64v9.798h-52.2c.034-4.605-.069-9.218.053-13.819.2-1.18 1.418-2.1 2.497-2.061Zm20.38-9.26c-2.093-1.706-2.771 2.35-2.876 3.397 3.44 3.316 9.775 3.267 12.826-.557-.851-2.379-1.301-3.97-3.979-2.582a13.52 13.52 0 0 1-5.971-.258Zm-1.82-2.61c5.79 3.062 13.191.316 16.79-4.84 2.587-2.846 2.523-6.776 2.45-10.369.112-2.191-.035-5.053-2.533-5.846-5.146-.38-10.375-.019-15.502-.859-2.42.04-5.491-1.87-7.351-1.22-.827 1.729-2.617 2.903-2.16 4.995.067 3.077-.53 6.241.346 9.24 1.53 3.768 4.62 6.77 8.01 8.899ZM43.15 89.36h35.6c-2.278-2.887-5.981-3.904-9.21-5.33-3.8 4.846-12.074 4.751-16.02.13-3.513 1.482-7.723 2.496-10.37 5.2z" clip-rule="evenodd"/></svg>