<svg enable-background="new 0 0 122.88 109.9" version="1.1" viewBox="0 0 123 110" xml:space="preserve" xmlns="http://www.w3.org/2000/svg"><style type="text/css">.st0{fill-rule:evenodd;clip-rule:evenodd;}</style><path class="st0" d="m112 104v3.93c0 1.02-0.82 1.84-1.84 1.84h-98.5c-1.02 0-1.84-0.82-1.84-1.84v-56.4c-2.05 0.79-3.97 0.8-5.57 0.27-1.25-0.42-2.29-1.17-3.07-2.15-0.77-0.97-1.27-2.16-1.41-3.46-0.23-2.02 0.38-4.32 2.11-6.47 0.09-0.11 0.19-0.21 0.3-0.29l57.6-39.1c0.65-0.6 1.65-0.66 2.37-0.1l57.7 39c0.08 0.06 0.15 0.13 0.22 0.2 2.32 2.5 2.9 5.27 2.34 7.62-0.28 1.15-0.83 2.19-1.6 3.05s-1.73 1.52-2.84 1.92c-1.76 0.63-3.84 0.61-5.96-0.39zm-16.9 1.15h12.3v-55.7c0-0.12 0.01-0.24 0.04-0.35l-46.1-30.7-47 30.7c0.04 0.15 0.06 0.31 0.06 0.47v55.5h80.7z" fill="#800080"/><path d="m37.9 89.3h2.98c1.95-3.02 6.13-4.6 9.87-6.01 0.92-0.35 1.82-0.69 2.64-1.03 0.43-0.57 0.79-1.19 1.06-1.84 0.24-0.57 0.42-1.16 0.54-1.79-0.67-0.4-1.31-0.87-1.92-1.4-2.48-2.2-4.21-4-5.33-6.07-1.13-2.11-1.61-3.23-1.55-6.48l0.18-6.23c0-0.1 0.02-0.2 0.05-0.29l-2.19-0.76c-0.32-7.14 3.7-11.4 8.68-13.6 1.81-0.78-1.22-4.74 2.95-3.35 5.57 1.87 17.9 4.3 20.9 7.67 2.38 2.74 2.48 4.24 2.42 7.85-0.02 1.17-0.2 2.2-0.76 2.57-0.26 0.17-0.56 0.24-0.92 0.2v6.6c0 4.46-1.6 6.97-4.05 9.73-1.38 1.55-3.03 2.8-4.82 3.7 0.11 0.57 0.26 1.12 0.45 1.65 0.22 0.61 0.5 1.2 0.84 1.75 0.72 0.32 1.43 0.61 2.14 0.9 3.49 1.43 7.04 2.88 8.88 6.23h4.03c1.42 0 2.58 1.16 2.58 2.58v13.3h-52.2v-13.3c0-1.42 1.16-2.58 2.58-2.58zm23.3 9.64c1.71 0 3.1 1.39 3.1 3.1s-1.39 3.1-3.1 3.1-3.1-1.39-3.1-3.1 1.39-3.1 3.1-3.1zm-2.92-18.9c-0.56-0.15-1.11-0.33-1.64-0.55-0.13 0.57-0.31 1.13-0.54 1.66-0.28 0.67-0.63 1.31-1.06 1.91 0.47 0.52 1 0.97 1.58 1.34 1.56 1.01 3.44 1.48 5.28 1.43 1.84-0.04 3.63-0.6 5.03-1.67 0.49-0.37 0.93-0.79 1.3-1.28-0.33-0.57-0.61-1.17-0.84-1.8-0.18-0.49-0.32-0.99-0.44-1.5-1.79 0.64-3.61 0.96-5.39 0.94-1.11-0.04-2.21-0.19-3.28-0.48zm-1.82-2.61c0.58 0.3 1.17 0.55 1.78 0.75 1.13 0.36 2.32 0.53 3.51 0.53 1.89 0 3.8-0.43 5.58-1.24s3.43-2 4.78-3.52c2.18-2.46 3.59-4.56 3.59-8.56v-4.97c-0.02-0.59-0.1-1.13-0.25-1.62-0.15-0.47-0.36-0.89-0.64-1.25-1.08-1.35-2.11-1.34-3.57-1.33h-0.45c-5.78-0.02-9.58-0.21-12.6-0.63-2.84-0.38-5.06-0.96-7.65-1.77-0.24 0.54-0.53 1.07-0.86 1.59-0.42 0.66-0.91 1.29-1.48 1.88l-0.17 7.43c-0.06 2.93 0.36 3.79 1.34 5.62 1 1.86 2.62 3.53 4.95 5.59 0.62 0.54 1.28 1.01 1.96 1.38 0.08 0.04 0.16 0.08 0.23 0.12zm12.5-15.2c1.05 0 1.91 0.85 1.91 1.9s-0.86 1.9-1.91 1.9-1.9-0.85-1.9-1.9c0-1.04 0.85-1.9 1.9-1.9zm-14.4 0c1.05 0 1.91 0.85 1.91 1.9s-0.85 1.9-1.91 1.9c-1.05 0-1.9-0.85-1.9-1.9 0-1.04 0.85-1.9 1.9-1.9zm3.29 9.83c-0.41-0.27-0.52-0.81-0.26-1.22s0.81-0.53 1.22-0.26c1 0.65 1.97 1.01 2.88 1.02 0.89 0.01 1.77-0.3 2.63-0.98 0.38-0.3 0.94-0.23 1.24 0.15s0.23 0.94-0.16 1.24c-1.2 0.93-2.44 1.36-3.74 1.34-1.26-0.01-2.53-0.46-3.81-1.29zm-14.7 17.3h35.6c-1.69-2.24-4.59-3.43-7.45-4.6-0.6-0.25-1.19-0.49-1.76-0.73-0.47 0.64-1.05 1.21-1.71 1.69-1.58 1.14-3.61 1.8-5.72 1.9-2.09 0.1-4.26-0.35-6.11-1.41-0.92-0.53-1.76-1.21-2.48-2.05-0.7 0.28-1.43 0.56-2.18 0.84-3.02 1.14-6.35 2.39-8.24 4.36z" clip-rule="evenodd" fill="#fff" fill-rule="evenodd"/></svg>
