<svg xmlns="http://www.w3.org/2000/svg" xml:space="preserve" width="109" height="178.43" viewBox="-246 381.4 10.9 17.84">
  <path d="M-182.7 398.9c.5-2.6 2.3-6.9 3.1-9.8.5-1.7 1.3-4.2 0-4.9-.2-.1-.7 0-.8-.3 2.6-.2 4.3.6 4.5 2.4.1 1.2-.6 2.8-1 4.1-.4 1.4-1.1 2.7-1.2 3.7.8-2.3 5-2.5 5.4 0 .4 2.6-2.5 4.9-.8 6.9 1.1.2 1.2-1 1.6-1.1-.6 2.5-4.7 2.3-5.1 0-.5-2.7 2.2-5.1 1.1-7.1-1.3-.3-2.3 1.1-2.9 2.6-.8 2.1-1.9 5.4 0 6.1-1.8.6-3.8-.1-4-1.7.1-.2.1-.6.1-.9z" class="fill" style="fill:#ff6f21;fill-opacity:1" transform="translate(-63.2 -2.47)"/>
</svg>
