<svg width="48px" height="48px" version="1.1" viewBox="0 0 48 48" xmlns="http://www.w3.org/2000/svg"><path d="m41.7 13.5c-4.86 2.06-10.2 3.61-15.5 2.88-4.12-0.531-7.88-2.88-10.3-6.2-0.777-1.1-1.66-2.2-2.05-3.51 0.0545-0.857 1.59-0.508 2.3-0.649 5.51 0.011 11-0.0221 16.5 0.017 4.23 0.196 8.07 3.36 9.09 7.46z" fill="#304ffe"/><path d="m7.12 11.4c1.79-3.63 5.95-5.78 9.94-5.42h9.74c4.66 0.839 9.62 1.81 13.3 5.03 1.14 0.896 1.58 2.45 1.89 3.7 0.0235 8.18-20.4 6.76-26.7 2.07-2.64-1.89-5.25-3.87-8.14-5.37z" fill="#4928f4"/><path d="m42 16v2.37c-1.09 0.753-2.55 0.611-3.82 0.762-6.38 0.22-12.8-0.236-19.1-1.12-2.51-0.436-5.14-0.745-7.43-1.94-0.748-1.03-1.82-1.61-3.18-1.6-0.698-0.233-2.67 0.221-2.14-0.925 0.368-1.39 0.831-3.17 2.41-3.59 9.99-4.17 22.1-2.83 30.8 3.62 0.823 0.638 1.76 1.25 2.42 2.02 0.0074 0.131 0.0065 0.263 0.0072 0.395z" fill="#6200ea"/><path d="m42 18.4v4.54c-4.65 3.71-10.6 5.43-16.5 5.86-5.14 0.302-10.6-0.376-14.9-3.44-3.7-2.58-5.38-7.53-4.27-11.9 8.59-4.99 19.7-5.14 28.5-0.421 2.65 1.41 5.1 3.19 7.22 5.32z" fill="#673ab7"/><path d="m42 21.4v5.14c-4.15 4.14-9.42 7.74-15.5 8.02-5.84 0.308-11.2-2.95-15.1-7.14-2.13-2.33-4.02-4.92-5.47-7.7v-3.59c8-5.3 18.8-5.82 27.3-1.49 3.29 1.65 6.29 3.94 8.66 6.77z" fill="#8e24aa"/><path d="m42 24.7v7.23c-6.6-1.61-13.4-1.99-20.1-3.11-5.66-0.925-11.1-3.2-15.6-6.71-0.524-0.312-0.173-1.06-0.275-1.58v-2.03c6.75-4.87 15.9-6.17 23.7-3.22 4.92 1.8 9.23 5.15 12.3 9.42z" fill="#c2185b"/><path d="m42 28.7c-0.086 2.12 0.296 4.36-0.581 6.36-0.737 1.51-2.65 1.01-3.85 0.426-2.33-1.03-4.53-2.51-7.12-2.77-6.43-1.28-12.9-2.8-18.8-5.56-1.89-0.833-3.75-1.72-5.61-2.62v-3.43c4.6-3.81 10.7-5.72 16.6-5.28 7.61 0.47 14.8 4.95 18.6 11.5 0.271 0.437 0.524 0.884 0.754 1.34z" fill="#d81b60"/><path d="m41.8 33.9c-0.304 1.56-0.993 3.04-1.98 4.28-5.37-2.22-11.2-2.94-16.8-4.16-5.31-1.14-10.8-2.19-15.5-5.05-0.746-0.498-1.48-1.06-1.49-1.99v-3.17c5.59-5.51 14.3-7.41 21.7-4.91 6.84 2.2 12.3 8.02 14.1 15z" fill="#f50057"/><path d="m40.3 37.6c-0.87 1.29-2.05 2.36-3.4 3.13-1.82-0.669-3.56-1.6-5.44-2.15-6.71-2.2-13.9-2.58-20.5-5.18-1.7-0.552-3.24-1.52-4.95-2.04v-4.47c4.11-4.97 10.8-7.66 17.2-6.86 6.95 0.723 13.2 5.56 15.8 12.1 0.698 1.76 1.17 3.62 1.32 5.51z" fill="#ff1744"/><path d="m38.4 39.4c-0.542 0.904-2.07 1.89-3.16 1.8-1.33-0.694-2.75-1.21-4.25-1.29-4.55-0.578-9.09-1.21-13.6-1.75-3.64-0.156-7.17-1.24-10.6-2.4-0.772-1.71-0.782-3.61-0.75-5.45 3.07-5.14 8.92-8.47 14.9-8.39 6.29-0.0645 12.4 3.59 15.4 9.14 1.38 2.55 2.11 5.44 2.1 8.34z" fill="#ff5722"/><path d="m36.3 39.4c0.221 1.26-0.383 2.11-1.68 2.22-1.12 0.589-2.08 0.0768-2.96-0.641-3.5-1.95-7.64-2.06-11.5-2.17-3.91-0.0769-7.83 0.136-11.7-0.316-1.02-1.16-1.75-2.57-2.12-4.07 1.39-4.25 4.76-7.73 8.92-9.33 5.6-2.35 12.5-0.865 16.7 3.52 2.81 2.84 4.43 6.8 4.41 10.8z" fill="#ff6f00"/><path d="m34.3 39.4c-0.132 0.752 0.172 1.97-0.392 2.4-0.759 0.0527-1.68 0.455-2.31-0.115-2.24-1.23-4.87-1.35-7.36-1.55-4.37-0.279-8.74 0.0497-13.1-0.149-1.34 0.13-2.24-0.918-2.98-1.86-0.948-0.892 0.00926-2.23 0.212-3.28 1.76-4.82 6.45-8.43 11.6-8.77 4.85-0.413 9.8 2.08 12.3 6.25 1.32 2.11 2.02 4.59 2.02 7.08z" fill="#ff9800"/><path d="m32.2 39.4c-0.105 0.809 0.0868 2.05-0.379 2.58-1.81-0.0113-3.62 0.0225-5.43-0.0168-2.34-0.379-4.69-0.743-7.04-1.12-1.87 0.154-3.68 0.673-5.54 0.9-1.54-0.332-3-1.06-4.21-2.07-0.191-4.24 2.31-8.44 6.11-10.3 3.93-2.06 9.06-1.52 12.4 1.38 2.56 2.12 4.06 5.38 4.05 8.69z" fill="#ffc107"/><path d="m30.2 39.3c-0.0185 0.904-0.0886 1.81-0.33 2.69-1.57-0.0062-3.14 0.0124-4.71-0.0093-1.44-0.31-2.88-0.62-4.32-0.931-1.53 0.317-3.05 0.642-4.58 0.94-1.51 0.027-3.03-0.281-4.41-0.92-0.669-3.46 0.841-7.22 3.75-9.22 2.95-2.14 7.17-2.24 10.2-0.314 2.68 1.62 4.37 4.64 4.36 7.76z" fill="#ffd54f"/><path d="m28.1 39.5c-5.95e-4 0.841-0.133 1.69-0.42 2.48-1.5-0.0062-3.01 0.0123-4.51-0.0092-0.752-0.207-1.5-0.414-2.26-0.621-0.775 0.207-1.55 0.438-2.32 0.63-1.34-0.0239-2.68 0.0688-4.01-0.101-0.722 0.0734-0.629-0.82-0.78-1.31-0.346-2.25 0.436-4.65 2.09-6.23 2.01-2 5.24-2.59 7.84-1.47 2.51 1.02 4.28 3.57 4.37 6.28 0.0115 0.118 0.0168 0.237 0.0169 0.356z" fill="#ffe082"/><path d="m26.1 39.5c-0.0013 0.869-0.262 1.73-0.7 2.48h-8.88c-1.15-1.85-0.833-4.42 0.654-5.99 1.36-1.5 3.64-2.03 5.54-1.33 1.87 0.631 3.26 2.47 3.37 4.44 0.0123 0.133 0.02 0.267 0.02 0.4z" fill="#ffecb3"/><path d="m30 11h-12c-3.9 0-7 3.1-7 7v12c0 3.9 3.1 7 7 7h12c3.9 0 7-3.1 7-7v-12c0-3.9-3.1-7-7-7z" fill="none" stroke="#fff" stroke-linecap="round" stroke-linejoin="round" stroke-miterlimit="10" stroke-width="2"/><circle cx="31" cy="16" r="1" fill="#fff"/><circle cx="24" cy="24" r="6" fill="none" stroke="#fff" stroke-linecap="round" stroke-linejoin="round" stroke-miterlimit="10" stroke-width="2"/></svg>
