<svg width="48" height="48" xmlns="http://www.w3.org/2000/svg"><path d="M41.7 13.5c-4.86 2.06-10.2 3.61-15.5 2.88-4.12-.531-7.88-2.88-10.3-6.2-.777-1.1-1.66-2.2-2.05-3.51.055-.857 1.59-.508 2.3-.649 5.51.011 11-.022 16.5.017 4.23.196 8.07 3.36 9.09 7.46z" fill="#304ffe"/><path d="M7.12 11.4c1.79-3.63 5.95-5.78 9.94-5.42h9.74c4.66.839 9.62 1.81 13.3 5.03 1.14.896 1.58 2.45 1.89 3.7.023 8.18-20.4 6.76-26.7 2.07-2.64-1.89-5.25-3.87-8.14-5.37z" fill="#4928f4"/><path d="M42 16v2.37c-1.09.753-2.55.611-3.82.762-6.38.22-12.8-.236-19.1-1.12-2.51-.436-5.14-.745-7.43-1.94-.748-1.03-1.82-1.61-3.18-1.6-.698-.233-2.67.221-2.14-.925.368-1.39.831-3.17 2.41-3.59 9.99-4.17 22.1-2.83 30.8 3.62.823.638 1.76 1.25 2.42 2.02.007.131.006.263.007.395z" fill="#6200ea"/><path d="M42 18.4v4.54c-4.65 3.71-10.6 5.43-16.5 5.86-5.14.302-10.6-.376-14.9-3.44-3.7-2.58-5.38-7.53-4.27-11.9 8.59-4.99 19.7-5.14 28.5-.421 2.65 1.41 5.1 3.19 7.22 5.32z" fill="#673ab7"/><path d="M42 21.4v5.14c-4.15 4.14-9.42 7.74-15.5 8.02-5.84.308-11.2-2.95-15.1-7.14-2.13-2.33-4.02-4.92-5.47-7.7v-3.59c8-5.3 18.8-5.82 27.3-1.49 3.29 1.65 6.29 3.94 8.66 6.77z" fill="#8e24aa"/><path d="M42 24.7v7.23c-6.6-1.61-13.4-1.99-20.1-3.11-5.66-.925-11.1-3.2-15.6-6.71-.524-.312-.173-1.06-.275-1.58V18.5c6.75-4.87 15.9-6.17 23.7-3.22 4.92 1.8 9.23 5.15 12.3 9.42z" fill="#c2185b"/><path d="M42 28.7c-.086 2.12.296 4.36-.581 6.36-.737 1.51-2.65 1.01-3.85.426-2.33-1.03-4.53-2.51-7.12-2.77-6.43-1.28-12.9-2.8-18.8-5.56-1.89-.833-3.75-1.72-5.61-2.62v-3.43c4.6-3.81 10.7-5.72 16.6-5.28 7.61.47 14.8 4.95 18.6 11.5.271.437.524.884.754 1.34z" fill="#d81b60"/><path d="M41.8 33.9a9.97 9.97 0 0 1-1.98 4.28c-5.37-2.22-11.2-2.94-16.8-4.16-5.31-1.14-10.8-2.19-15.5-5.05-.746-.498-1.48-1.06-1.49-1.99v-3.17c5.59-5.51 14.3-7.41 21.7-4.91 6.84 2.2 12.3 8.02 14.1 15z" fill="#f50057"/><path d="M40.3 37.6c-.87 1.29-2.05 2.36-3.4 3.13-1.82-.669-3.56-1.6-5.44-2.15-6.71-2.2-13.9-2.58-20.5-5.18-1.7-.552-3.24-1.52-4.95-2.04v-4.47c4.11-4.97 10.8-7.66 17.2-6.86 6.95.723 13.2 5.56 15.8 12.1.698 1.76 1.17 3.62 1.32 5.51z" fill="#ff1744"/><path d="M38.4 39.4c-.542.904-2.07 1.89-3.16 1.8-1.33-.694-2.75-1.21-4.25-1.29-4.55-.578-9.09-1.21-13.6-1.75-3.64-.156-7.17-1.24-10.6-2.4-.772-1.71-.782-3.61-.75-5.45 3.07-5.14 8.92-8.47 14.9-8.39 6.29-.065 12.4 3.59 15.4 9.14a17.47 17.47 0 0 1 2.1 8.34z" fill="#ff5722"/><path d="M36.3 39.4c.221 1.26-.383 2.11-1.68 2.22-1.12.589-2.08.077-2.96-.641-3.5-1.95-7.64-2.06-11.5-2.17-3.91-.077-7.83.136-11.7-.316a9.707 9.707 0 0 1-2.12-4.07c1.39-4.25 4.76-7.73 8.92-9.33 5.6-2.35 12.5-.865 16.7 3.52 2.81 2.84 4.43 6.8 4.41 10.8z" fill="#ff6f00"/><path d="M34.3 39.4c-.132.752.172 1.97-.392 2.4-.759.053-1.68.455-2.31-.115-2.24-1.23-4.87-1.35-7.36-1.55-4.37-.279-8.74.05-13.1-.149-1.34.13-2.24-.918-2.98-1.86-.948-.892.01-2.23.212-3.28 1.76-4.82 6.45-8.43 11.6-8.77 4.85-.413 9.8 2.08 12.3 6.25 1.32 2.11 2.02 4.59 2.02 7.08z" fill="#ff9800"/><path d="M32.2 39.4c-.105.809.087 2.05-.379 2.58-1.81-.011-3.62.022-5.43-.017-2.34-.379-4.69-.743-7.04-1.12-1.87.154-3.68.673-5.54.9a9.87 9.87 0 0 1-4.21-2.07c-.191-4.24 2.31-8.44 6.11-10.3 3.93-2.06 9.06-1.52 12.4 1.38 2.56 2.12 4.06 5.38 4.05 8.69z" fill="#ffc107"/><path d="M30.2 39.3c-.018.904-.089 1.81-.33 2.69-1.57-.006-3.14.012-4.71-.01l-4.32-.93c-1.53.317-3.05.642-4.58.94-1.51.027-3.03-.281-4.41-.92-.669-3.46.841-7.22 3.75-9.22 2.95-2.14 7.17-2.24 10.2-.314 2.68 1.62 4.37 4.64 4.36 7.76z" fill="#ffd54f"/><path d="M28.1 39.5c0 .841-.133 1.69-.42 2.48-1.5-.006-3.01.012-4.51-.01-.752-.206-1.5-.413-2.26-.62-.775.207-1.55.438-2.32.63-1.34-.024-2.68.069-4.01-.101-.722.073-.629-.82-.78-1.31-.346-2.25.436-4.65 2.09-6.23 2.01-2 5.24-2.59 7.84-1.47 2.51 1.02 4.28 3.57 4.37 6.28.012.118.017.237.017.356z" fill="#ffe082"/><path d="M26.1 39.5c-.001.869-.262 1.73-.7 2.48h-8.88c-1.15-1.85-.833-4.42.654-5.99 1.36-1.5 3.64-2.03 5.54-1.33 1.87.631 3.26 2.47 3.37 4.44.012.133.02.267.02.4z" fill="#ffecb3"/><path d="M30 11H18c-3.9 0-7 3.1-7 7v12c0 3.9 3.1 7 7 7h12c3.9 0 7-3.1 7-7V18c0-3.9-3.1-7-7-7z" fill="none" stroke="#fff" stroke-linecap="round" stroke-linejoin="round" stroke-miterlimit="10" stroke-width="2"/><circle cx="31" cy="16" r="1" fill="#fff"/><circle cx="24" cy="24" r="6" fill="none" stroke="#fff" stroke-linecap="round" stroke-linejoin="round" stroke-miterlimit="10" stroke-width="2"/></svg>