<svg xmlns="http://www.w3.org/2000/svg" viewBox="0 0 512 512"><circle cx="256.292" cy="256.876" r="86.987" style="fill:none;stroke:#fff;stroke-width:40;stroke-linecap:round;stroke-linejoin:round;stroke-dasharray:none;stroke-opacity:1"/><g transform="translate(-10.201 -10.2) scale(.92583)"><path d="M287.526 106.841c48.448 2.844 101.161-8.13 145.49 16.885 32.044 23.515 36.716 66.859 34.56 103.607.622 59.524 3.177 119.467-4.104 178.654-9.861 38.146-49.727 64.66-88.66 60.585-65.942 2.776-132.18 2.99-198-1.64-30.615-5.024-60.188-27.766-64.35-59.956-10.926-50.084-2.345-101.568-5.463-152.269.09-36.803-2.655-76.855 16.429-109.828 21.145-29.398 60.047-37.813 94.302-35.518 23.26-.671 46.532-.437 69.798-.52m0-39.711c-54.696 2.2-113.801-7.48-163.65 20.89-45.097 28.306-59.8 85.701-56.035 135.971-.938 62.524-3.062 125.43 4.279 187.636 10.73 51.394 58.287 93.518 111.552 93.483 62.42 6.088 125.192.794 187.752 2.278 43.859-.975 92.149-16.206 115.047-56.578 28-44.956 19.304-99.583 21.565-149.833.2-45.824.605-91.923-5.085-137.443-10.655-51.31-57.777-92.952-110.742-93.885-34.747-4.241-69.806-1.356-104.683-2.52z" style="fill:#fff;fill-opacity:1;stroke-width:.87486"/><circle cx="405.173" cy="169.878" r="26.447" style="fill:#fff;fill-opacity:1;stroke-width:.87486"/></g></svg>