<svg xmlns="http://www.w3.org/2000/svg" width="408.58" height="408.28">
  <circle cx="204.63" cy="204.93" r="86.99" style="fill:none;stroke:#fff;stroke-width:40;stroke-linecap:round;stroke-linejoin:round;stroke-dasharray:none;stroke-opacity:1"/>
  <g transform="matrix(.9258 0 0 .9258 -61.87 -62.15)">
    <path d="M287.53 106.84c48.44 2.84 101.16-8.13 145.49 16.89 32.04 23.51 36.71 66.85 34.56 103.6.62 59.53 3.17 119.47-4.1 178.66-9.87 38.14-49.73 64.66-88.67 60.58-65.94 2.78-132.18 3-198-1.64-30.61-5.02-60.19-27.76-64.35-59.95-10.92-50.09-2.34-101.57-5.46-152.27.09-36.8-2.66-76.86 16.43-109.83 21.14-29.4 60.05-37.81 94.3-35.52 23.26-.67 46.53-.44 69.8-.52m0-39.71c-54.7 2.2-113.8-7.48-163.65 20.89-45.1 28.3-59.8 85.7-56.04 135.97-.93 62.52-3.06 125.43 4.28 187.64 10.73 51.4 58.29 93.51 111.55 93.48 62.42 6.09 125.2.8 187.76 2.28 43.86-.98 92.15-16.2 115.04-56.58 28-44.96 19.3-99.58 21.57-149.83.2-45.83.6-91.93-5.09-137.45-10.65-51.3-57.77-92.95-110.74-93.88-34.75-4.24-69.8-1.36-104.68-2.52z" style="fill:#fff;fill-opacity:1;stroke-width:.87486"/>
    <circle cx="405.17" cy="169.88" r="26.45" style="fill:#fff;fill-opacity:1;stroke-width:.87486"/>
  </g>
</svg>
