<svg xmlns="http://www.w3.org/2000/svg" xml:space="preserve" width="375.62" height="189.49" viewBox="0 0 99.38 50.14">
  <path d="m103.9 110.2.25-50.01-49.75 50.14Z" style="fill:#7dc466;fill-opacity:1;stroke-width:.264583" transform="translate(-54.4 -60.19)"/>
  <path d="m87.48 76.92-.06 16.6 16.6-16.34Z" style="fill:#ffef5e;fill-opacity:1;stroke-width:.264583" transform="translate(-54.4 -60.19)"/>
  <path d="m70.88 93.53-.07 16.6 16.61-16.35Z" style="fill:#fded5a;fill-opacity:1;stroke-width:.264583" transform="translate(-54.4 -60.19)"/>
  <path d="m87.42 93.72-.06 16.6 16.6-16.35z" style="fill:#ffef5c;fill-opacity:1;stroke-width:.264583" transform="translate(-54.4 -60.19)"/>
  <path d="m103.92 110.24.1-50.05 49.76 50.14z" style="fill:#ffef5c;fill-opacity:1;stroke-width:.264583" transform="translate(-54.4 -60.19)"/>
  <path d="m120.7 76.92.06 16.6-16.6-16.34zM137.3 93.53l.07 16.6-16.61-16.35z" style="fill:#7dc466;fill-opacity:1;stroke-width:.264583" transform="translate(-54.4 -60.19)"/>
  <path d="m120.76 93.72.06 16.6-16.6-16.35z" style="fill:#7dc466;fill-opacity:1;stroke-width:.264583" transform="translate(-54.4 -60.19)"/>
</svg>
