<svg xmlns="http://www.w3.org/2000/svg" width="191.84" height="237.45" viewBox="0 0 179.85 222.6">
  <defs>
    <clipPath id="a" clipPathUnits="userSpaceOnUse">
      <path d="M719.8 226.43h122.75v70.2H719.79Z"/>
    </clipPath>
  </defs>
  <g clip-path="url(#a)" transform="matrix(4.0957 0 0 -4.0957 -3109.94 1213.88)">
    <path d="M0 0v50.52h-43.89V10.3c2.2.5 3.87.43 6.22-.23 2.6-.74 3.26-2.84 5.84-3.57 2.65-.74 4.4.73 7.04-.05 2.53-.73 3.22-2.8 5.8-3.5 2.65-.75 4.41.8 7.08.06 2.53-.69 3.22-2.8 5.8-3.4C-3.76-.91-2.08-.7 0 0m-19.12 13.49h3.34V7.12h-3.34zm0 37.03s3-1.12 4.3-2.15c1.1-.88 1.42-1.1 2-2.45.78-1.74.15-2.26 1.36-4.54 1.2-2.34 3.42-2 4.52-4.86 1.26-3.4-1.38-4.95-.86-8.37.43-2.8 2.45-3.03 2.3-6.3a7.5 7.5 0 0 0-1.92-4.51 10.05 10.05 0 0 0-8.32-3.83c4.02-1.06 8.45.32 10.84 2.58 2.82 2.67 3.4 4.58 3.03 7.08-.45 3-1.79 2.94-2.24 5.74-.53 3.26 1.9 5.25.41 8.99-1.29 3.3-4.34 3.4-5.5 5.24-1.36 2.15-.67 1.9-1.6 3.79-.49.99-1.87 1.94-2.98 2.47-1.31.65-5.19 1.16-5.34 1.12m-5.7 0a40.51 40.51 0 0 0-4.36-8.04c-1.36-1.96-2.56-3.2-4-4.84h6.2a38.65 38.65 0 0 0-3.99-5.55 34.07 34.07 0 0 0-4-4.13h6.52a54.14 54.14 0 0 0-4.4-5.8 26.29 26.29 0 0 0-3.9-3.75h11.93v-6.7h-3.37v3.76h-15.72a81.6 81.6 0 0 1 7.59 6.75c1.25 1.24 1.57 1.7 2.52 2.84H-42a54.24 54.24 0 0 1 7.23 6.7c1.24 1.34 1.61 1.8 2.58 2.97h-8.13c3.33 2.78 4.92 4.07 8.5 7.66 3.48 3.46 4.42 5 6.88 8.13z" style="fill:#008e7e;fill-opacity:1;fill-rule:evenodd;stroke:none" transform="translate(803.23 245.85)"/>
    <path d="M0 0v-11.05h37.98s-1.44.3-1.57.34c-2.6.73-2.88 2.58-5.46 3.27-2.7.69-4.5-.77-7.2 0-2.54.73-3.19 2.86-5.8 3.53-2.72.7-4.51-.8-7.07.04-2.51.8-3.48 2.99-6.02 3.6C2.82.2 2.02.44.28.08 0 .05 0 0 0 0" style="fill:#1a68bb;fill-opacity:1;fill-rule:evenodd;stroke:none" transform="translate(759.38 253.08)"/>
  </g>
</svg>
