<svg xmlns="http://www.w3.org/2000/svg" xml:space="preserve" width="687.13" height="770.28" viewBox="0 0 181.8 203.8">
  <path d="M171.5 210.91c28.25-40.58-26.36-88.45-25.37-118.6l7.01 3.79c8.01 46.7 65.6 92.5 36.54 137.76z" style="fill:#fe0058;fill-opacity:1;stroke-width:.264583" transform="translate(-16 -30.05)"/>
  <path d="M140.9 182.84c28.26-40.58-26.36-88.45-25.37-118.6l7.02 3.78c8 46.7 65.6 92.5 36.53 137.76z" style="fill:#fe4d00;fill-opacity:1;stroke-width:.264583" transform="translate(-16 -30.05)"/>
  <path d="M110.5 148.65c28.25-40.59-26.37-88.45-25.38-118.6l7.02 3.78c8 46.7 65.6 92.5 36.53 137.76Z" style="fill:#fc0;fill-opacity:1;stroke-width:.264583" transform="translate(-16 -30.05)"/>
  <path d="M101.51 148.65c-28.25-40.59 26.37-88.45 25.38-118.6l-7.02 3.78c-8 46.7-65.6 92.5-36.53 137.76Z" style="fill:#4eff00;fill-opacity:1;stroke-width:.264583" transform="translate(-16 -30.05)"/>
  <path d="M71.28 182.66C43.03 142.08 97.65 94.2 96.66 64.06l-7.02 3.78c-8.01 46.7-65.6 92.5-36.53 137.76Z" style="fill:#00ffb1;fill-opacity:1;stroke-width:.264583" transform="translate(-16 -30.05)"/>
  <path d="M42.3 210.91c-28.24-40.58 26.37-88.45 25.38-118.6l-7.02 3.79c-8 46.7-65.59 92.5-36.53 137.76Z" style="fill:#0000fe;fill-opacity:1;stroke-width:.264583" transform="translate(-16 -30.05)"/>
</svg>
