<svg xmlns="http://www.w3.org/2000/svg" xml:space="preserve" width="49.49" height="54" fill="none">
  <path d="m18.5 54 6.2-12.8L30.6 54h-12z" style="fill:#c41087;fill-opacity:1"/>
  <path d="m24.7 22.8-5.7 8 5.7 8.2 5.4-8.3-5.4-8zM24.5 0 19 10.8 24.6 21l5.5-10z" style="fill:#87b3d8;fill-opacity:1"/>
  <path d="M47.8 32c.4.5 3.7 6.8-.2 11.3a21.7 21.7 0 0 1-15.4 7.1z" style="fill:#c51087;fill-opacity:1"/>
  <path d="m32.6 31.6 5.9 7.7-7.7 11.1-4.6-11.2z" style="fill:#c31188;fill-opacity:1"/>
  <path d="m41.9 21.1 3.8 10.4-6 7-5.3-9.2L42 21zM33.3 11.7l3.8 9.2-5.2 8.7-5.8-8.1z" style="fill:#87b3d8;fill-opacity:1"/>
  <path d="M1.3 32c-.4.5-3.1 6.8.7 11.3a20.6 20.6 0 0 0 15 7.1L1.2 32Z" style="fill:#c31287;fill-opacity:1"/>
  <path d="m16.5 31.6-5.9 7.7 7.7 11.1 4.6-11.2z" style="fill:#c31188;fill-opacity:1"/>
  <path d="M7.2 21.1 3.4 31.5l6 7 5.3-9.2L7.2 21ZM15.3 11.8 12 21l5.7 8.5 5.3-8.4-7.7-9.4z" style="fill:#87b3d8;fill-opacity:1"/>
</svg>
