<svg enable-background="new 0 0 111.23 122.88" version="1.1" viewBox="0 0 111 123" xml:space="preserve" xmlns="http://www.w3.org/2000/svg"><style type="text/css">.st0{fill-rule:evenodd;clip-rule:evenodd;}</style><path d="m35 0c7.79 0 14.1 6.31 14.1 14.1s-6.31 14.1-14.1 14.1-14.1-6.31-14.1-14.1 6.31-14.1 14.1-14.1z" fill="#800080"/><g fill="#fff"><path d="m5.54 112c0.05-0.41 0.24-0.81 0.55-1.13 2.33-2.35 5.28-4.27 8.65-5.58 2.36-0.92 4.91-1.54 7.59-1.81l-0.51-8.03h-18.3c-1.9 0-3.47-1.56-3.47-3.47 0-14.4 3.38-25.1 0-41.5-1-4.84 8.99-5.54 8.99 0.26v36.8h34.6c1.91 0 3.46 2.54 3.46 4.45v2.7c0 0.42-0.35 0.76-0.76 0.76h-18.4l-0.71 7.95c2.84 0.19 5.56 0.77 8.06 1.68 3.22 1.17 6.07 2.9 8.4 5.02 0.56 0.51 0.76 1.26 0.58 1.95 0.9 0.67 1.48 1.74 1.48 2.95 0 2.04-1.65 3.69-3.69 3.69s-3.68-1.65-3.68-3.69c0-1.22 0.59-2.3 1.5-2.97-1.72-1.34-3.73-2.45-5.93-3.25-2.37-0.87-4.98-1.39-7.73-1.48l-0.4 3.98-0.02 0.17c1.56 0.43 2.7 1.86 2.7 3.55 0 2.04-1.65 3.69-3.68 3.69-2.04 0-3.69-1.65-3.69-3.69 0-1.68 1.13-3.1 2.67-3.54l-0.01-0.19-0.28-3.94c-2.63 0.18-5.12 0.74-7.38 1.62h-0.01c-2.2 0.86-4.19 2.02-5.89 3.42 0.68 0.67 1.1 1.6 1.1 2.63 0 2.04-1.65 3.69-3.68 3.69-2.04 0-3.69-1.65-3.69-3.69-0.01-1.23 0.6-2.32 1.53-2.99z"/><path d="m50.1 59.7h57.2c0.33 0 0.6 0.28 0.6 0.6v8.59c0 0.32-0.28 0.6-0.6 0.6h-2.7v52.6c0 0.44-0.36 0.79-0.79 0.79h-6.79c-0.44 0-0.79-0.36-0.79-0.79v-52.6h-46.1c-0.32 0-0.6-0.27-0.6-0.6v-8.59c0-0.33 0.27-0.6 0.6-0.6z"/><path d="m76.5 57.6c-1.63 0-2.95-1.32-2.95-2.95s1.32-2.95 2.95-2.95h19l10.2-20.7c0.71-1.46 2.48-2.06 3.94-1.35s2.06 2.48 1.35 3.93l-10.9 22.1c-0.42 1.11-1.5 1.9-2.76 1.9h-20.8z"/></g><path d="m40.9 55.3-0.27 16.7h17.5c3.71 0 6.74 3.03 6.74 6.74v6.74h-0.07v26.4c0 3.71-3.03 6.74-6.74 6.74h-6.74v-31.2c0-2.95-1.11-1.93-4.45-1.93h-15.1v-0.04h-8.64c-5.58 0-10.1-4.56-10.1-10.1v-35.2c0-5.67 4.64-10.3 10.3-10.3h5.1c10.6 0 8.93 7.31 13.6 11.9 4.64 4.54 3.47 5.06 9.81 5.06h13.7c11.3 0 5.23 11-1.47 10.6h-12.5c-5.58 0-6.05 0.89-10.7-2.17z" fill="#800080"/></svg>
