<svg xmlns="http://www.w3.org/2000/svg" xml:space="preserve" id="svg1625" version="1.1" viewBox="0 0 111 123"><style id="style1615">.st0{fill-rule:evenodd;clip-rule:evenodd}</style><path id="path1617" fill="purple" d="M35 0c7.79 0 14.1 6.31 14.1 14.1S42.79 28.2 35 28.2s-14.1-6.31-14.1-14.1S27.21 0 35 0z"/><g id="g1621" fill="#fff"><path id="path1619" d="M5.54 112c.05-.41.24-.81.55-1.13 2.33-2.35 5.28-4.27 8.65-5.58 2.36-.92 4.91-1.54 7.59-1.81l-.51-8.03H3.52c-1.9 0-3.47-1.56-3.47-3.47 0-14.4 3.38-25.1 0-41.5-1-4.84 8.99-5.54 8.99.26v36.8h34.6c1.91 0 3.46 2.54 3.46 4.45v2.7c0 .42-.35.76-.76.76h-18.4l-.71 7.95c2.84.19 5.56.77 8.06 1.68 3.22 1.17 6.07 2.9 8.4 5.02.56.51.76 1.26.58 1.95a3.687 3.687 0 0 1-2.21 6.64c-2.04 0-3.68-1.65-3.68-3.69 0-1.22.59-2.3 1.5-2.97-1.72-1.34-3.73-2.45-5.93-3.25-2.37-.87-4.98-1.39-7.73-1.48l-.4 3.98-.02.17c1.56.43 2.7 1.86 2.7 3.55a3.685 3.685 0 1 1-4.7-3.54l-.01-.19-.28-3.94c-2.63.18-5.12.74-7.38 1.62h-.01c-2.2.86-4.19 2.02-5.89 3.42.68.67 1.1 1.6 1.1 2.63a3.685 3.685 0 1 1-7.37 0c-.01-1.23.6-2.32 1.53-2.99zM50.1 59.7h57.2c.33 0 .6.28.6.6v8.59c0 .32-.28.6-.6.6h-2.7v52.6c0 .44-.36.79-.79.79h-6.79c-.44 0-.79-.36-.79-.79v-52.6h-46.1c-.32 0-.6-.27-.6-.6V60.3c0-.33.27-.6.6-.6zm26.4-2.1a2.949 2.949 0 1 1 0-5.9h19L105.7 31c.71-1.46 2.48-2.06 3.94-1.35s2.06 2.48 1.35 3.93l-10.9 22.1c-.42 1.11-1.5 1.9-2.76 1.9h-20.8z"/></g><path id="path1623" fill="purple" d="M40.9 55.3 40.63 72c6.735.358 13.685-.73 20.288.574 4.99 2.265 3.95 8.303 3.912 12.726-.132 9.11.126 18.232-.132 27.333-.391 5.846-6.959 6.527-11.48 5.946-4.302-.724-.745-8.782-1.901-12.343.012-6.582.035-13.164-.051-19.746-3.87-2.473-9.655-.267-14.323-1.002-5.606-.202-11.307.39-16.848-.477-7.137-2.08-7.69-10.244-7.057-16.403.085-10.179-.234-20.383.186-30.545 1.221-6.756 8.662-9.176 14.694-8.226 5.34-.676 9.837 2.9 11.4 7.845 2.41 4.269 5.957 9.3 11.416 9.234 6.056-.095 12.179-.362 18.214.196 6.919 3.424-.632 11.913-6.267 10.336-6.042-.31-12.179.405-18.165-.269-1.295-.437-2.447-1.19-3.616-1.879Z"/></svg>