<svg viewBox="0 0 111 123" xml:space="preserve" xmlns="http://www.w3.org/2000/svg"><style>.st0{fill-rule:evenodd;clip-rule:evenodd}</style><path d="M35 0c7.79 0 14.1 6.31 14.1 14.1S42.79 28.2 35 28.2s-14.1-6.31-14.1-14.1S27.21 0 35 0z" fill="purple"/><g fill="#fff"><path d="M5.54 112c.05-.41.24-.81.55-1.13 2.33-2.35 5.28-4.27 8.65-5.58 2.36-.92 4.91-1.54 7.59-1.81l-.51-8.03H3.52c-1.9 0-3.47-1.56-3.47-3.47 0-14.4 3.38-25.1 0-41.5-1-4.84 8.99-5.54 8.99.26v36.8h34.6c1.91 0 3.46 2.54 3.46 4.45v2.7c0 .42-.35.76-.76.76h-18.4l-.71 7.95c2.84.19 5.56.77 8.06 1.68 3.22 1.17 6.07 2.9 8.4 5.02.56.51.76 1.26.58 1.95a3.687 3.687 0 0 1-2.21 6.64c-2.04 0-3.68-1.65-3.68-3.69 0-1.22.59-2.3 1.5-2.97-1.72-1.34-3.73-2.45-5.93-3.25-2.37-.87-4.98-1.39-7.73-1.48l-.4 3.98-.02.17c1.56.43 2.7 1.86 2.7 3.55a3.685 3.685 0 1 1-4.7-3.54l-.01-.19-.28-3.94c-2.63.18-5.12.74-7.38 1.62h-.01c-2.2.86-4.19 2.02-5.89 3.42.68.67 1.1 1.6 1.1 2.63a3.685 3.685 0 1 1-7.37 0c-.01-1.23.6-2.32 1.53-2.99zM50.1 59.7h57.2c.33 0 .6.28.6.6v8.59c0 .32-.28.6-.6.6h-2.7v52.6c0 .44-.36.79-.79.79h-6.79c-.44 0-.79-.36-.79-.79v-52.6h-46.1c-.32 0-.6-.27-.6-.6V60.3c0-.33.27-.6.6-.6zM76.5 57.6a2.949 2.949 0 1 1 0-5.9h19L105.7 31c.71-1.46 2.48-2.06 3.94-1.35s2.06 2.48 1.35 3.93l-10.9 22.1c-.42 1.11-1.5 1.9-2.76 1.9h-20.8z"/></g><path d="M40.9 55.3 40.63 72h17.5c3.71 0 6.74 3.03 6.74 6.74v6.74h-.07v26.4c0 3.71-3.03 6.74-6.74 6.74h-6.74v-31.2c0-2.95-1.11-1.93-4.45-1.93h-15.1v-.04h-8.64c-5.58 0-10.1-4.56-10.1-10.1v-35.2c0-5.67 4.64-10.3 10.3-10.3h5.1c10.6 0 8.93 7.31 13.6 11.9 4.64 4.54 3.47 5.06 9.81 5.06h13.7c11.3 0 5.23 11-1.47 10.6h-12.5c-5.58 0-6.05.89-10.7-2.17z" fill="purple"/></svg>