<svg xmlns="http://www.w3.org/2000/svg" xml:space="preserve" id="svg1625" version="1.1" viewBox="0 0 111 123">
  <style id="style1615">
    .st0{fill-rule:evenodd;clip-rule:evenodd}
  </style>
  <path id="path1617" fill="purple" d="M35 0a14.1 14.1 0 1 1 0 28.2A14.1 14.1 0 0 1 35 0z"/>
  <g id="g1621" fill="#fff">
    <path id="path1619" d="M5.54 112c.18-1.46 4.47-4.87 9.2-6.71a28.85 28.85 0 0 1 7.59-1.81l-.51-8.03H3.52a3.48 3.48 0 0 1-3.47-3.47c0-14.4 3.38-25.1 0-41.5-1-4.84 8.99-5.54 8.99.26v36.8h34.6c1.91 0 3.46 2.54 3.46 4.45v2.7c0 .42-.35.76-.76.76h-18.4l-.71 7.95c2.84.19 5.56.77 8.06 1.68 1.93.7 9.7 4.2 8.98 6.97a3.69 3.69 0 1 1-4.39-.02 21.77 21.77 0 0 0-5.93-3.25 24.8 24.8 0 0 0-7.73-1.48l-.4 3.98s2.68 2.03 2.68 3.72a3.68 3.68 0 1 1-4.7-3.54l-.29-4.13c-2.63.18-5.12.74-7.38 1.62h-.01c-2.2.86-4.19 2.02-5.89 3.42.68.67 1.1 1.6 1.1 2.63 0 4.91-7.37 4.91-7.37 0a3.65 3.65 0 0 1 1.53-2.99zM50.1 59.7h57.2c.33 0 .6.28.6.6v8.59c0 .32-.28.6-.6.6h-2.7v52.6a.8.8 0 0 1-.79.79h-6.79a.8.8 0 0 1-.79-.79v-52.6h-46.1a.6.6 0 0 1-.6-.6V60.3c0-.33.27-.6.6-.6zm26.4-2.1c-3.93 0-3.93-5.9 0-5.9h19L105.7 31a2.95 2.95 0 0 1 5.29 2.58l-10.9 22.1a2.95 2.95 0 0 1-2.76 1.9h-20.8z"/>
  </g>
  <path id="path1623" fill="purple" d="M40.9 55.3 40.63 72c6.74.36 13.69-.73 20.29.57 6.84 4.25 3.96 32.3 3.78 40.06-.4 5.85-7.04 6.95-11.48 5.95-3.82-.86-1.9-27.25-1.95-32.09-4.08-2.6-20.66.17-31.18-1.48-7.13-2.08-7.69-10.24-7.05-16.4.08-10.18-.24-20.38.18-30.55 1.91-10.54 22.28-12.47 26.1-.38 2.4 4.27 5.95 9.3 11.41 9.24 6.06-.1 12.18-.37 18.22.2 6.92 3.42-.42 10.22-6.27 10.33-7.02.13-15.22 1.77-21.78-2.15Z"/>
</svg>
